# xmcd CD database file
#
# Track frame offsets:
#	150
#	18205
#	38387
#	60712
#	79112
#	95937
#	114440
#	139462
#	160220
#	182092
#	201565
#	223227
#	248655
#	268300
#	287050
#
# Disc length: 4071 seconds
#
# Revision: 0
# Processed by: cddbd v1.5PL3 Copyright (c) Steve Scherf et al.
# Submitted via: CDex 1.50beta10
#
DISCID=e30fe50f
DTITLE=憂歌団 - UKADAN SINGLES
DYEAR=1900
DGENRE=Blues
TTITLE0=You are my Angel
TTITLE1=大阪ビッグ・リバー・ブルース
TTITLE2=胸が痛い(Original Version)
TTITLE3=ザ・エン歌
TTITLE4=オナカ・イ・タ・イ
TTITLE5=スッポンポン
TTITLE6=アイム・ソーリー
TTITLE7=わたしの星
TTITLE8=想い出の街
TTITLE9=かぞえきれない雨
TTITLE10=わかれのうた
TTITLE11=Good time's rollin' Bad time's rollin'
TTITLE12=胸が痛い(’91NewVersion)
TTITLE13=キスに願いを
TTITLE14=君といつまでも(ステイ・ウィズ・ユー・フォーエバー)
EXTD=
EXTT0=
EXTT1=
EXTT2=
EXTT3=
EXTT4=
EXTT5=
EXTT6=
EXTT7=
EXTT8=
EXTT9=
EXTT10=
EXTT11=
EXTT12=
EXTT13=
EXTT14=
PLAYORDER=
